<?xml version="1.0" encoding="UTF-8" standalone="no"?><!DOCTYPE svg PUBLIC "-//W3C//DTD SVG 1.1//EN" "http://www.w3.org/Graphics/SVG/1.1/DTD/svg11.dtd"><svg width="3169px" height="2605px" version="1.1" xmlns="http://www.w3.org/2000/svg" xmlns:xlink="http://www.w3.org/1999/xlink" xml:space="preserve" xmlns:serif="http://www.serif.com/" style="fill-rule:evenodd;clip-rule:evenodd;stroke-linecap:round;stroke-linejoin:round;stroke-miterlimit:2;"><g transform="matrix(1,0,0,1,-944.717583,-833.702468)"><path d="M1665,1599C1626,1574 1582,1529 1550,1524C1520,1520 1486,1549 1473,1571C1460,1593 1459,1629 1470,1655C1481,1681 1508,1715 1540,1726C1572,1738 1623,1726 1665,1726" style="fill:rgb(255,249,23);fill-opacity:0.9;stroke:black;stroke-width:1px;"/><g transform="matrix(1,0,0,1,13.336471,5.334588)"><path d="M1487,1789C1504,1731 1531,1738 1549,1726C1574,1709 1623,1674 1642,1649C1657,1628 1642,1591 1661,1575C1682,1558 1732,1546 1769,1546C1828,1546 1982,1456 2065,1427C2118,1407 2173,1463 2229,1472C2310,1486 2329,1622 2327,1683C2326,1716 2394,1682 2426,1673C2446,1667 2504,1742 2557,1754C2593,1762 2618,1656 2641,1639C2655,1628 2677,1653 2694,1649C2721,1642 2760,1605 2797,1600C2835,1594 2890,1635 2920,1614C2949,1594 2965,1526 2974,1477C2985,1411 2976,1283 2988,1218C2997,1170 3003,1106 3047,1086C3117,1053 3297,1021 3409,1022C3516,1023 3622,1055 3723,1090C3886,1147 4029,1324 4080,1463C4138,1621 4056,1826 3968,1908C3915,1957 3860,2019 3791,2031C3767,2035 3710,2038 3691,2040C3600,2051 3597,2047 3576,2045C3517,2042 3458,2010 3400,2021C3365,2027 3297,2036 3297,2036C3297,2036 3219,2034 3199,2016C3166,1986 3141,1922 3111,1918C3080,1914 3051,1970 3018,1991C2982,2015 2938,2068 2895,2060C2853,2052 2822,1985 2790,1977C2759,1970 2721,1992 2699,2011C2680,2028 2660,2047 2636,2055C2597,2068 2521,2104 2464,2089C2402,2073 2295,2002 2261,1968C2242,1949 2238,2020 2213,2031C2177,2047 2101,2042 2043,2055C1988,2068 1938,2113 1882,2109C1809,2103 1667,2054 1607,2021C1567,1998 1552,1946 1524,1908" style="fill:rgb(0,229,255);stroke:black;stroke-width:1px;"/></g><g transform="matrix(1,0,0,1,0,-26.931596)"><path d="M2442,2082L2356,2179L2080,2378L1791,2478L1564,2620L1462,2978L1501,3249L1665,3465L1665,3242L1610,3105L1564,2953L1564,2801L1769,2537L2085,2412L2325,2314L2480,2115L2511,2059" style="fill:rgb(0,229,255);stroke:black;stroke-width:1px;"/></g><g transform="matrix(1,0,0,1,430.905529,-61.208172)"><path d="M2442,2082L2356,2179L2080,2378L1791,2478L1564,2620L1462,2978L1501,3249L1665,3465L1665,3242L1610,3105L1564,2953L1564,2801L1769,2537L2085,2412L2325,2314L2480,2115L2511,2059" style="fill:rgb(0,229,255);stroke:black;stroke-width:1px;"/></g><g transform="matrix(1,0,0,1,856.914404,-71.001479)"><path d="M2442,2082L2356,2179L2080,2378L1791,2478L1564,2620L1462,2978L1501,3249L1665,3465L1665,3242L1610,3105L1564,2953L1564,2801L1769,2537L2085,2412L2325,2314L2480,2115L2511,2059" style="fill:rgb(0,229,255);stroke:black;stroke-width:1px;"/></g><g transform="matrix(1,0,0,1,1368.614719,-46.51821)"><path d="M2442,2082L2356,2179L2080,2378L1791,2478L1564,2620L1462,2978L1501,3249L1665,3465L1665,3242L1610,3105L1564,2953L1564,2801L1769,2537L2085,2412L2325,2314L2480,2115L2511,2059" style="fill:rgb(0,229,255);stroke:black;stroke-width:1px;"/></g><g transform="matrix(-0.134281,0.435483,-0.660016,-0.203516,3739.57445,842.022516)"><path d="M2442,2082L2356,2179L2080,2378L1791,2478L1564,2620L1462,2978L1501,3249L1665,3465L1665,3242L1610,3105L1564,2953L1564,2801L1769,2537L2085,2412L2325,2314L2480,2115L2511,2059" style="fill:rgb(0,229,255);stroke:black;stroke-width:2px;"/></g><g transform="matrix(-0.134281,0.435483,-0.660016,-0.203516,3455.568533,932.61061)"><path d="M2442,2082L2356,2179L2080,2378L1791,2478L1564,2620L1462,2978L1501,3249L1665,3465L1665,3242L1610,3105L1564,2953L1564,2801L1769,2537L2085,2412L2325,2314L2480,2115L2511,2059" style="fill:rgb(0,229,255);stroke:black;stroke-width:2px;"/></g><g transform="matrix(0.109839,0.221724,-0.229724,0.113802,1905.744524,1137.563453)"><path d="M2442,2082L2356,2179L2080,2378L1791,2478L1564,2620L1462,2978L1501,3249L1665,3465L1665,3242L1610,3105L1564,2953L1564,2801L1769,2537L2085,2412L2325,2314L2480,2115L2511,2059" style="fill:rgb(0,229,255);stroke:black;stroke-width:4px;"/></g><g transform="matrix(0.136912,-0.20179,-0.161778,-0.109764,1661.552279,2691.327328)"><path d="M2442,2082L2356,2179L2080,2378L1791,2478L1564,2620L1462,2978L1501,3249L1665,3465L1665,3242L1610,3105L1564,2953L1564,2801L1769,2537L2085,2412L2325,2314L2480,2115L2511,2059" style="fill:rgb(0,229,255);stroke:black;stroke-width:5px;"/></g><path d="M1862,1726C1901,1713 1981,1706 2001,1731C2021,1757 2008,1849 1982,1879C1957,1909 1882,1922 1846,1911C1811,1899 1766,1840 1769,1809C1772,1779 1824,1739 1862,1726Z" style="fill:rgb(255,249,23);fill-opacity:0.8;stroke:black;stroke-width:1px;"/></g></svg>